<?xml version="1.0" encoding="UTF-8" standalone="no"?>
<!DOCTYPE svg PUBLIC "-//W3C//DTD SVG 1.1//EN"
 "http://www.w3.org/Graphics/SVG/1.1/DTD/svg11.dtd">
<!-- Generated by graphviz version 2.40.1 (20161225.0304)
 -->
<!-- Title: %3 Pages: 1 -->
<svg width="1839pt" height="948pt"
 viewBox="0.00 0.00 1838.77 947.94" xmlns="http://www.w3.org/2000/svg" xmlns:xlink="http://www.w3.org/1999/xlink">
<g id="graph0" class="graph" transform="scale(1 1) rotate(0) translate(4 943.9414)">
<title>%3</title>
<polygon fill="#ffffff" stroke="transparent" points="-4,4 -4,-943.9414 1834.7739,-943.9414 1834.7739,4 -4,4"/>
<!-- 59 -->
<g id="node1" class="node">
<title>59</title>
<g id="a_node1"><a xlink:title="&lt;frozen importlib._bootstrap&gt;">
<polygon fill="#0d0f73" stroke="#0d0f73" points="1744.627,-939.9395 1558.998,-939.9395 1558.998,-885.9473 1744.627,-885.9473 1744.627,-939.9395"/>
<text text-anchor="middle" x="1651.8125" y="-927.9414" font-family="Arial" font-size="10.00" fill="#ffffff">&lt;frozen importlib:989:_handle_fromlist</text>
<text text-anchor="middle" x="1651.8125" y="-916.4424" font-family="Arial" font-size="10.00" fill="#ffffff">0.56%</text>
<text text-anchor="middle" x="1651.8125" y="-904.9434" font-family="Arial" font-size="10.00" fill="#ffffff">(0.00%)</text>
<text text-anchor="middle" x="1651.8125" y="-893.4443" font-family="Arial" font-size="10.00" fill="#ffffff">1799×</text>
</a>
</g>
</g>
<!-- 358 -->
<g id="node2" class="node">
<title>358</title>
<g id="a_node2"><a xlink:title="&lt;frozen importlib._bootstrap&gt;">
<polygon fill="#0d0f74" stroke="#0d0f74" points="1770.2549,-844.9453 1533.3701,-844.9453 1533.3701,-790.9531 1770.2549,-790.9531 1770.2549,-844.9453"/>
<text text-anchor="middle" x="1651.8125" y="-832.9473" font-family="Arial" font-size="10.00" fill="#ffffff">&lt;frozen importlib:197:_call_with_frames_removed</text>
<text text-anchor="middle" x="1651.8125" y="-821.4482" font-family="Arial" font-size="10.00" fill="#ffffff">0.66%</text>
<text text-anchor="middle" x="1651.8125" y="-809.9492" font-family="Arial" font-size="10.00" fill="#ffffff">(0.00%)</text>
<text text-anchor="middle" x="1651.8125" y="-798.4502" font-family="Arial" font-size="10.00" fill="#ffffff">563×</text>
</a>
</g>
</g>
<!-- 59&#45;&gt;358 -->
<g id="edge1" class="edge">
<title>59&#45;&gt;358</title>
<path fill="none" stroke="#0d0f73" stroke-width=".5" d="M1651.8125,-885.7219C1651.8125,-874.1948 1651.8125,-860.7064 1651.8125,-848.8112"/>
<polygon fill="#0d0f73" stroke="#0d0f73" stroke-width=".5" points="1653.0376,-848.6747 1651.8125,-845.1747 1650.5876,-848.6747 1653.0376,-848.6747"/>
<text text-anchor="middle" x="1665.9897" y="-868.9453" font-family="Arial" font-size="10.00" fill="#0d0f73">0.55%</text>
<text text-anchor="middle" x="1665.9897" y="-857.4463" font-family="Arial" font-size="10.00" fill="#0d0f73">33×</text>
</g>
<!-- 357 -->
<g id="node5" class="node">
<title>357</title>
<g id="a_node5"><a xlink:title="~">
<polygon fill="#0d0f73" stroke="#0d0f73" points="1567.2549,-686.9551 1370.3701,-686.9551 1370.3701,-632.9629 1567.2549,-632.9629 1567.2549,-686.9551"/>
<text text-anchor="middle" x="1468.8125" y="-674.957" font-family="Arial" font-size="10.00" fill="#ffffff">~:0:&lt;built&#45;in method builtins.__import__&gt;</text>
<text text-anchor="middle" x="1468.8125" y="-663.458" font-family="Arial" font-size="10.00" fill="#ffffff">0.56%</text>
<text text-anchor="middle" x="1468.8125" y="-651.959" font-family="Arial" font-size="10.00" fill="#ffffff">(0.00%)</text>
<text text-anchor="middle" x="1468.8125" y="-640.46" font-family="Arial" font-size="10.00" fill="#ffffff">407×</text>
</a>
</g>
</g>
<!-- 358&#45;&gt;357 -->
<g id="edge5" class="edge">
<title>358&#45;&gt;357</title>
<path fill="none" stroke="#0d0f73" stroke-width=".5" d="M1546.7717,-790.8334C1525.3922,-781.0246 1504.8683,-767.7801 1489.8125,-749.9531 1476.0316,-733.6357 1470.9045,-709.9528 1469.1576,-690.9773"/>
<polygon fill="#0d0f73" stroke="#0d0f73" stroke-width=".5" points="1470.3589,-690.6367 1468.8517,-687.2486 1467.9171,-690.8371 1470.3589,-690.6367"/>
<text text-anchor="middle" x="1543.9897" y="-773.9512" font-family="Arial" font-size="10.00" fill="#0d0f73">0.56%</text>
<text text-anchor="middle" x="1543.9897" y="-762.4521" font-family="Arial" font-size="10.00" fill="#0d0f73">38×</text>
</g>
<!-- 390 -->
<g id="node7" class="node">
<title>390</title>
<g id="a_node7"><a xlink:title="~">
<polygon fill="#ff0000" stroke="#ff0000" points="1662.8486,-749.9512 1494.7764,-749.9512 1494.7764,-695.959 1662.8486,-695.959 1662.8486,-749.9512"/>
<text text-anchor="middle" x="1578.8125" y="-737.9531" font-family="Arial" font-size="10.00" fill="#ffffff">~:0:&lt;built&#45;in method builtins.exec&gt;</text>
<text text-anchor="middle" x="1578.8125" y="-726.4541" font-family="Arial" font-size="10.00" fill="#ffffff">100.00%</text>
<text text-anchor="middle" x="1578.8125" y="-714.9551" font-family="Arial" font-size="10.00" fill="#ffffff">(0.05%)</text>
<text text-anchor="middle" x="1578.8125" y="-703.4561" font-family="Arial" font-size="10.00" fill="#ffffff">522×</text>
</a>
</g>
</g>
<!-- 358&#45;&gt;390 -->
<g id="edge6" class="edge">
<title>358&#45;&gt;390</title>
<path fill="none" stroke="#0d0f74" stroke-width=".5" d="M1630.8936,-790.7277C1621.8827,-779.0019 1611.3122,-765.2465 1602.0573,-753.2033"/>
<polygon fill="#0d0f74" stroke="#0d0f74" stroke-width=".5" points="1602.8384,-752.2093 1599.7344,-750.1806 1600.8958,-753.7022 1602.8384,-752.2093"/>
<text text-anchor="middle" x="1638.9897" y="-773.9512" font-family="Arial" font-size="10.00" fill="#0d0f74">0.66%</text>
<text text-anchor="middle" x="1638.9897" y="-762.4521" font-family="Arial" font-size="10.00" fill="#0d0f74">3×</text>
</g>
<!-- 184 -->
<g id="node3" class="node">
<title>184</title>
<g id="a_node3"><a xlink:title="&lt;frozen importlib._bootstrap&gt;">
<polygon fill="#0d0f74" stroke="#0d0f74" points="1753.2426,-433.9707 1526.3824,-433.9707 1526.3824,-379.9785 1753.2426,-379.9785 1753.2426,-433.9707"/>
<text text-anchor="middle" x="1639.8125" y="-421.9727" font-family="Arial" font-size="10.00" fill="#ffffff">&lt;frozen importlib:931:_find_and_load_unlocked</text>
<text text-anchor="middle" x="1639.8125" y="-410.4736" font-family="Arial" font-size="10.00" fill="#ffffff">0.66%</text>
<text text-anchor="middle" x="1639.8125" y="-398.9746" font-family="Arial" font-size="10.00" fill="#ffffff">(0.00%)</text>
<text text-anchor="middle" x="1639.8125" y="-387.4756" font-family="Arial" font-size="10.00" fill="#ffffff">457×</text>
</a>
</g>
</g>
<!-- 184&#45;&gt;358 -->
<g id="edge2" class="edge">
<title>184&#45;&gt;358</title>
<path fill="none" stroke="#0d0e73" stroke-width=".5" d="M1656.5804,-434.1579C1666.3701,-452.5928 1676.8125,-477.8983 1676.8125,-501.9688 1676.8125,-722.9551 1676.8125,-722.9551 1676.8125,-722.9551 1676.8125,-744.8583 1670.5197,-768.6946 1664.2484,-787.011"/>
<polygon fill="#0d0e73" stroke="#0d0e73" stroke-width=".5" points="1662.9931,-786.8902 1662.9963,-790.5984 1665.3063,-787.6976 1662.9931,-786.8902"/>
<text text-anchor="middle" x="1690.9897" y="-600.4619" font-family="Arial" font-size="10.00" fill="#0d0e73">0.25%</text>
<text text-anchor="middle" x="1690.9897" y="-588.9629" font-family="Arial" font-size="10.00" fill="#0d0e73">18×</text>
</g>
<!-- 418 -->
<g id="node4" class="node">
<title>418</title>
<g id="a_node4"><a xlink:title="&lt;frozen importlib._bootstrap&gt;">
<polygon fill="#0d0f74" stroke="#0d0f74" points="1753.3122,-338.9766 1570.3128,-338.9766 1570.3128,-284.9844 1753.3122,-284.9844 1753.3122,-338.9766"/>
<text text-anchor="middle" x="1661.8125" y="-326.9785" font-family="Arial" font-size="10.00" fill="#ffffff">&lt;frozen importlib:641:_load_unlocked</text>
<text text-anchor="middle" x="1661.8125" y="-315.4795" font-family="Arial" font-size="10.00" fill="#ffffff">0.66%</text>
<text text-anchor="middle" x="1661.8125" y="-303.9805" font-family="Arial" font-size="10.00" fill="#ffffff">(0.00%)</text>
<text text-anchor="middle" x="1661.8125" y="-292.4814" font-family="Arial" font-size="10.00" fill="#ffffff">363×</text>
</a>
</g>
</g>
<!-- 184&#45;&gt;418 -->
<g id="edge3" class="edge">
<title>184&#45;&gt;418</title>
<path fill="none" stroke="#0d0f74" stroke-width=".5" d="M1646.1168,-379.7531C1648.7864,-368.2261 1651.9102,-354.7376 1654.6651,-342.8425"/>
<polygon fill="#0d0f74" stroke="#0d0f74" stroke-width=".5" points="1655.9109,-342.8921 1655.5073,-339.206 1653.5241,-342.3393 1655.9109,-342.8921"/>
<text text-anchor="middle" x="1666.9897" y="-362.9766" font-family="Arial" font-size="10.00" fill="#0d0f74">0.66%</text>
<text text-anchor="middle" x="1666.9897" y="-351.4775" font-family="Arial" font-size="10.00" fill="#0d0f74">3×</text>
</g>
<!-- 619 -->
<g id="node9" class="node">
<title>619</title>
<g id="a_node9"><a xlink:title="&lt;frozen importlib._bootstrap_external&gt;">
<polygon fill="#0d0f74" stroke="#0d0f74" points="1830.7354,-243.9824 1658.8896,-243.9824 1658.8896,-189.9902 1830.7354,-189.9902 1830.7354,-243.9824"/>
<text text-anchor="middle" x="1744.8125" y="-231.9844" font-family="Arial" font-size="10.00" fill="#ffffff">&lt;frozen importlib:672:exec_module</text>
<text text-anchor="middle" x="1744.8125" y="-220.4854" font-family="Arial" font-size="10.00" fill="#ffffff">0.66%</text>
<text text-anchor="middle" x="1744.8125" y="-208.9863" font-family="Arial" font-size="10.00" fill="#ffffff">(0.00%)</text>
<text text-anchor="middle" x="1744.8125" y="-197.4873" font-family="Arial" font-size="10.00" fill="#ffffff">285×</text>
</a>
</g>
</g>
<!-- 418&#45;&gt;619 -->
<g id="edge8" class="edge">
<title>418&#45;&gt;619</title>
<path fill="none" stroke="#0d0f74" stroke-width=".5" d="M1685.597,-284.759C1695.929,-272.9338 1708.0647,-259.0445 1718.6507,-246.9287"/>
<polygon fill="#0d0f74" stroke="#0d0f74" stroke-width=".5" points="1719.6441,-247.6535 1721.0246,-244.2118 1717.7992,-246.0415 1719.6441,-247.6535"/>
<text text-anchor="middle" x="1726.9897" y="-267.9824" font-family="Arial" font-size="10.00" fill="#0d0f74">0.66%</text>
<text text-anchor="middle" x="1726.9897" y="-256.4834" font-family="Arial" font-size="10.00" fill="#0d0f74">3×</text>
</g>
<!-- 565 -->
<g id="node6" class="node">
<title>565</title>
<g id="a_node6"><a xlink:title="&lt;frozen importlib._bootstrap&gt;">
<polygon fill="#0d0f74" stroke="#0d0f74" points="1655.1514,-528.9648 1474.4736,-528.9648 1474.4736,-474.9727 1655.1514,-474.9727 1655.1514,-528.9648"/>
<text text-anchor="middle" x="1564.8125" y="-516.9668" font-family="Arial" font-size="10.00" fill="#ffffff">&lt;frozen importlib:958:_find_and_load</text>
<text text-anchor="middle" x="1564.8125" y="-505.4678" font-family="Arial" font-size="10.00" fill="#ffffff">0.66%</text>
<text text-anchor="middle" x="1564.8125" y="-493.9688" font-family="Arial" font-size="10.00" fill="#ffffff">(0.00%)</text>
<text text-anchor="middle" x="1564.8125" y="-482.4697" font-family="Arial" font-size="10.00" fill="#ffffff">457×</text>
</a>
</g>
</g>
<!-- 357&#45;&gt;565 -->
<g id="edge4" class="edge">
<title>357&#45;&gt;565</title>
<path fill="none" stroke="#0d0f73" stroke-width=".5" d="M1464.4108,-632.944C1461.5967,-606.2139 1461.629,-565.4254 1481.8125,-537.9668 1483.4114,-535.7916 1485.1697,-533.7463 1487.0588,-531.8231"/>
<polygon fill="#0d0f73" stroke="#0d0f73" stroke-width=".5" points="1488.0362,-532.5829 1489.7133,-529.2756 1486.3398,-530.8153 1488.0362,-532.5829"/>
<text text-anchor="middle" x="1481.9897" y="-600.4619" font-family="Arial" font-size="10.00" fill="#0d0f73">0.56%</text>
<text text-anchor="middle" x="1481.9897" y="-588.9629" font-family="Arial" font-size="10.00" fill="#0d0f73">38×</text>
</g>
<!-- 565&#45;&gt;184 -->
<g id="edge11" class="edge">
<title>565&#45;&gt;184</title>
<path fill="none" stroke="#0d0f74" stroke-width=".5" d="M1586.3045,-474.7472C1595.5623,-463.0215 1606.4224,-449.2661 1615.9309,-437.2228"/>
<polygon fill="#0d0f74" stroke="#0d0f74" stroke-width=".5" points="1617.11,-437.7062 1618.3174,-434.2001 1615.187,-436.188 1617.11,-437.7062"/>
<text text-anchor="middle" x="1625.9897" y="-457.9707" font-family="Arial" font-size="10.00" fill="#0d0f74">0.66%</text>
<text text-anchor="middle" x="1625.9897" y="-446.4717" font-family="Arial" font-size="10.00" fill="#0d0f74">2×</text>
</g>
<!-- 666 -->
<g id="node8" class="node">
<title>666</title>
<g id="a_node8"><a xlink:title="gamma.py">
<polygon fill="#ff0000" stroke="#ff0000" points="1617.2529,-623.959 1512.3721,-623.959 1512.3721,-569.9668 1617.2529,-569.9668 1617.2529,-623.959"/>
<text text-anchor="middle" x="1564.8125" y="-611.9609" font-family="Arial" font-size="10.00" fill="#ffffff">gamma:1:&lt;module&gt;</text>
<text text-anchor="middle" x="1564.8125" y="-600.4619" font-family="Arial" font-size="10.00" fill="#ffffff">100.00%</text>
<text text-anchor="middle" x="1564.8125" y="-588.9629" font-family="Arial" font-size="10.00" fill="#ffffff">(1.12%)</text>
<text text-anchor="middle" x="1564.8125" y="-577.4639" font-family="Arial" font-size="10.00" fill="#ffffff">1×</text>
</a>
</g>
</g>
<!-- 390&#45;&gt;666 -->
<g id="edge7" class="edge">
<title>390&#45;&gt;666</title>
<path fill="none" stroke="#ff0000" stroke-width="4" d="M1575.8091,-695.9266C1573.8205,-678.0297 1571.1846,-654.3084 1568.9921,-634.5766"/>
<polygon fill="#ff0000" stroke="#ff0000" stroke-width="4" points="1572.4423,-633.9337 1567.8592,-624.3814 1565.4851,-634.7068 1572.4423,-633.9337"/>
<text text-anchor="middle" x="1594.5513" y="-663.458" font-family="Arial" font-size="10.00" fill="#ff0000">100.00%</text>
<text text-anchor="middle" x="1594.5513" y="-651.959" font-family="Arial" font-size="10.00" fill="#ff0000">1×</text>
</g>
<!-- 666&#45;&gt;565 -->
<g id="edge13" class="edge">
<title>666&#45;&gt;565</title>
<path fill="none" stroke="#0d0f74" stroke-width=".5" d="M1564.8125,-569.7414C1564.8125,-558.2143 1564.8125,-544.7259 1564.8125,-532.8308"/>
<polygon fill="#0d0f74" stroke="#0d0f74" stroke-width=".5" points="1566.0376,-532.6942 1564.8125,-529.1942 1563.5876,-532.6943 1566.0376,-532.6942"/>
<text text-anchor="middle" x="1578.9897" y="-552.9648" font-family="Arial" font-size="10.00" fill="#0d0f74">0.66%</text>
<text text-anchor="middle" x="1578.9897" y="-541.4658" font-family="Arial" font-size="10.00" fill="#0d0f74">2×</text>
</g>
<!-- 1393 -->
<g id="node13" class="node">
<title>1393</title>
<g id="a_node13"><a xlink:title="/Users/thomasmarkovich/.virtualenvs/py36/lib/python3.6/site&#45;packages/scipy/stats/_distn_infrastructure.py">
<polygon fill="#fc1200" stroke="#fc1200" points="1356.9004,-528.9648 1200.7246,-528.9648 1200.7246,-474.9727 1356.9004,-474.9727 1356.9004,-528.9648"/>
<text text-anchor="middle" x="1278.8125" y="-516.9668" font-family="Arial" font-size="10.00" fill="#ffffff">_distn_infrastructure:452:logpdf</text>
<text text-anchor="middle" x="1278.8125" y="-505.4678" font-family="Arial" font-size="10.00" fill="#ffffff">98.21%</text>
<text text-anchor="middle" x="1278.8125" y="-493.9688" font-family="Arial" font-size="10.00" fill="#ffffff">(2.54%)</text>
<text text-anchor="middle" x="1278.8125" y="-482.4697" font-family="Arial" font-size="10.00" fill="#ffffff">1000000×</text>
</a>
</g>
</g>
<!-- 666&#45;&gt;1393 -->
<g id="edge14" class="edge">
<title>666&#45;&gt;1393</title>
<path fill="none" stroke="#fc1200" stroke-width="3.93" d="M1512.2163,-573.5653C1509.0491,-572.3105 1505.8974,-571.1004 1502.8125,-569.9648 1458.495,-553.6519 1408.2592,-538.1389 1366.6082,-526.0605"/>
<polygon fill="#fc1200" stroke="#fc1200" stroke-width="3.93" points="1367.5106,-522.7146 1357.0382,-523.3018 1365.591,-529.3735 1367.5106,-522.7146"/>
<text text-anchor="middle" x="1496.1978" y="-552.9648" font-family="Arial" font-size="10.00" fill="#fc1200">98.21%</text>
<text text-anchor="middle" x="1496.1978" y="-541.4658" font-family="Arial" font-size="10.00" fill="#fc1200">1000000×</text>
</g>
<!-- 619&#45;&gt;358 -->
<g id="edge12" class="edge">
<title>619&#45;&gt;358</title>
<path fill="none" stroke="#0d0f74" stroke-width=".5" d="M1754.5261,-244.0383C1760.4196,-262.84 1766.8125,-288.6191 1766.8125,-311.9805 1766.8125,-722.9551 1766.8125,-722.9551 1766.8125,-722.9551 1766.8125,-751.9454 1744.8207,-773.7467 1720.0713,-789.1026"/>
<polygon fill="#0d0f74" stroke="#0d0f74" stroke-width=".5" points="1719.3962,-788.0793 1717.0407,-790.9433 1720.6681,-790.1733 1719.3962,-788.0793"/>
<text text-anchor="middle" x="1780.9897" y="-505.4678" font-family="Arial" font-size="10.00" fill="#0d0f74">0.66%</text>
<text text-anchor="middle" x="1780.9897" y="-493.9688" font-family="Arial" font-size="10.00" fill="#0d0f74">3×</text>
</g>
<!-- 466 -->
<g id="node10" class="node">
<title>466</title>
<g id="a_node10"><a xlink:title="~">
<polygon fill="#0d1676" stroke="#0d1676" points="407.0705,-148.9883 246.5545,-148.9883 246.5545,-94.9961 407.0705,-94.9961 407.0705,-148.9883"/>
<text text-anchor="middle" x="326.8125" y="-136.9902" font-family="Arial" font-size="10.00" fill="#ffffff">~:0:&lt;built&#45;in method builtins.len&gt;</text>
<text text-anchor="middle" x="326.8125" y="-125.4912" font-family="Arial" font-size="10.00" fill="#ffffff">2.19%</text>
<text text-anchor="middle" x="326.8125" y="-113.9922" font-family="Arial" font-size="10.00" fill="#ffffff">(2.19%)</text>
<text text-anchor="middle" x="326.8125" y="-102.4932" font-family="Arial" font-size="10.00" fill="#ffffff">16026135×</text>
</a>
</g>
</g>
<!-- 476 -->
<g id="node11" class="node">
<title>476</title>
<g id="a_node11"><a xlink:title="/Users/thomasmarkovich/.virtualenvs/py36/lib/python3.6/site&#45;packages/numpy/core/numerictypes.py">
<polygon fill="#0c9293" stroke="#0c9293" points="330.8493,-243.9824 160.7757,-243.9824 160.7757,-189.9902 330.8493,-189.9902 330.8493,-243.9824"/>
<text text-anchor="middle" x="245.8125" y="-231.9844" font-family="Arial" font-size="10.00" fill="#ffffff">numerictypes:942:_can_coerce_all</text>
<text text-anchor="middle" x="245.8125" y="-220.4854" font-family="Arial" font-size="10.00" fill="#ffffff">24.85%</text>
<text text-anchor="middle" x="245.8125" y="-208.9863" font-family="Arial" font-size="10.00" fill="#ffffff">(18.29%)</text>
<text text-anchor="middle" x="245.8125" y="-197.4873" font-family="Arial" font-size="10.00" fill="#ffffff">2000000×</text>
</a>
</g>
</g>
<!-- 476&#45;&gt;466 -->
<g id="edge9" class="edge">
<title>476&#45;&gt;466</title>
<path fill="none" stroke="#0d1676" stroke-width=".5" d="M269.0238,-189.7648C279.107,-177.9397 290.9502,-164.0504 301.2811,-151.9345"/>
<polygon fill="#0d1676" stroke="#0d1676" stroke-width=".5" points="302.259,-152.6758 303.5978,-149.2177 300.3947,-151.0861 302.259,-152.6758"/>
<text text-anchor="middle" x="321.9785" y="-172.9883" font-family="Arial" font-size="10.00" fill="#0d1676">2.18%</text>
<text text-anchor="middle" x="321.9785" y="-161.4893" font-family="Arial" font-size="10.00" fill="#0d1676">16000000×</text>
</g>
<!-- 944 -->
<g id="node12" class="node">
<title>944</title>
<g id="a_node12"><a xlink:title="/Users/thomasmarkovich/.virtualenvs/py36/lib/python3.6/site&#45;packages/numpy/core/numerictypes.py">
<polygon fill="#0d2078" stroke="#0d2078" points="237.876,-148.9883 91.749,-148.9883 91.749,-94.9961 237.876,-94.9961 237.876,-148.9883"/>
<text text-anchor="middle" x="164.8125" y="-136.9902" font-family="Arial" font-size="10.00" fill="#ffffff">numerictypes:951:&lt;listcomp&gt;</text>
<text text-anchor="middle" x="164.8125" y="-125.4912" font-family="Arial" font-size="10.00" fill="#ffffff">4.38%</text>
<text text-anchor="middle" x="164.8125" y="-113.9922" font-family="Arial" font-size="10.00" fill="#ffffff">(4.38%)</text>
<text text-anchor="middle" x="164.8125" y="-102.4932" font-family="Arial" font-size="10.00" fill="#ffffff">14000000×</text>
</a>
</g>
</g>
<!-- 476&#45;&gt;944 -->
<g id="edge10" class="edge">
<title>476&#45;&gt;944</title>
<path fill="none" stroke="#0d2078" stroke-width=".5" d="M222.6012,-189.7648C212.518,-177.9397 200.6748,-164.0504 190.3439,-151.9345"/>
<polygon fill="#0d2078" stroke="#0d2078" stroke-width=".5" points="191.2303,-151.0861 188.0272,-149.2177 189.366,-152.6758 191.2303,-151.0861"/>
<text text-anchor="middle" x="240.9785" y="-172.9883" font-family="Arial" font-size="10.00" fill="#0d2078">4.38%</text>
<text text-anchor="middle" x="240.9785" y="-161.4893" font-family="Arial" font-size="10.00" fill="#0d2078">14000000×</text>
</g>
<!-- 818 -->
<g id="node19" class="node">
<title>818</title>
<g id="a_node19"><a xlink:title="/Users/thomasmarkovich/.virtualenvs/py36/lib/python3.6/site&#45;packages/scipy/stats/_distn_infrastructure.py">
<polygon fill="#f82c01" stroke="#f82c01" points="1002.4623,-433.9707 841.1627,-433.9707 841.1627,-379.9785 1002.4623,-379.9785 1002.4623,-433.9707"/>
<text text-anchor="middle" x="921.8125" y="-421.9727" font-family="Arial" font-size="10.00" fill="#ffffff">_distn_infrastructure:1663:logpdf</text>
<text text-anchor="middle" x="921.8125" y="-410.4736" font-family="Arial" font-size="10.00" fill="#ffffff">95.67%</text>
<text text-anchor="middle" x="921.8125" y="-398.9746" font-family="Arial" font-size="10.00" fill="#ffffff">(25.78%)</text>
<text text-anchor="middle" x="921.8125" y="-387.4756" font-family="Arial" font-size="10.00" fill="#ffffff">1000000×</text>
</a>
</g>
</g>
<!-- 1393&#45;&gt;818 -->
<g id="edge32" class="edge">
<title>1393&#45;&gt;818</title>
<path fill="none" stroke="#f82c01" stroke-width="3.83" d="M1200.4673,-481.1219C1144.9582,-466.3515 1070.3434,-446.4972 1012.2941,-431.0509"/>
<polygon fill="#f82c01" stroke="#f82c01" stroke-width="3.83" points="1013.1119,-427.7192 1002.7594,-428.5138 1011.3479,-434.3485 1013.1119,-427.7192"/>
<text text-anchor="middle" x="1165.1978" y="-457.9707" font-family="Arial" font-size="10.00" fill="#f82c01">95.67%</text>
<text text-anchor="middle" x="1165.1978" y="-446.4717" font-family="Arial" font-size="10.00" fill="#f82c01">1000000×</text>
</g>
<!-- 810 -->
<g id="node14" class="node">
<title>810</title>
<g id="a_node14"><a xlink:title="~">
<polygon fill="#0d2479" stroke="#0d2479" points="1647.1592,-243.9824 1428.4658,-243.9824 1428.4658,-189.9902 1647.1592,-189.9902 1647.1592,-243.9824"/>
<text text-anchor="middle" x="1537.8125" y="-231.9844" font-family="Arial" font-size="10.00" fill="#ffffff">~:0:&lt;method &#39;any&#39; of &#39;numpy.ndarray&#39; objects&gt;</text>
<text text-anchor="middle" x="1537.8125" y="-220.4854" font-family="Arial" font-size="10.00" fill="#ffffff">5.26%</text>
<text text-anchor="middle" x="1537.8125" y="-208.9863" font-family="Arial" font-size="10.00" fill="#ffffff">(0.96%)</text>
<text text-anchor="middle" x="1537.8125" y="-197.4873" font-family="Arial" font-size="10.00" fill="#ffffff">1000000×</text>
</a>
</g>
</g>
<!-- 891 -->
<g id="node15" class="node">
<title>891</title>
<g id="a_node15"><a xlink:title="/Users/thomasmarkovich/.virtualenvs/py36/lib/python3.6/site&#45;packages/numpy/core/_methods.py">
<polygon fill="#0d1f78" stroke="#0d1f78" points="1587.0932,-148.9883 1488.5318,-148.9883 1488.5318,-94.9961 1587.0932,-94.9961 1587.0932,-148.9883"/>
<text text-anchor="middle" x="1537.8125" y="-136.9902" font-family="Arial" font-size="10.00" fill="#ffffff">_methods:37:_any</text>
<text text-anchor="middle" x="1537.8125" y="-125.4912" font-family="Arial" font-size="10.00" fill="#ffffff">4.30%</text>
<text text-anchor="middle" x="1537.8125" y="-113.9922" font-family="Arial" font-size="10.00" fill="#ffffff">(0.50%)</text>
<text text-anchor="middle" x="1537.8125" y="-102.4932" font-family="Arial" font-size="10.00" fill="#ffffff">1000000×</text>
</a>
</g>
</g>
<!-- 810&#45;&gt;891 -->
<g id="edge15" class="edge">
<title>810&#45;&gt;891</title>
<path fill="none" stroke="#0d1f78" stroke-width=".5" d="M1537.8125,-189.7648C1537.8125,-178.2378 1537.8125,-164.7494 1537.8125,-152.8542"/>
<polygon fill="#0d1f78" stroke="#0d1f78" stroke-width=".5" points="1539.0376,-152.7176 1537.8125,-149.2177 1536.5876,-152.7177 1539.0376,-152.7176"/>
<text text-anchor="middle" x="1560.1978" y="-172.9883" font-family="Arial" font-size="10.00" fill="#0d1f78">4.30%</text>
<text text-anchor="middle" x="1560.1978" y="-161.4893" font-family="Arial" font-size="10.00" fill="#0d1f78">1000000×</text>
</g>
<!-- 890 -->
<g id="node27" class="node">
<title>890</title>
<g id="a_node27"><a xlink:title="~">
<polygon fill="#0d1d78" stroke="#0d1d78" points="1649.669,-53.9941 1425.956,-53.9941 1425.956,-.002 1649.669,-.002 1649.669,-53.9941"/>
<text text-anchor="middle" x="1537.8125" y="-41.9961" font-family="Arial" font-size="10.00" fill="#ffffff">~:0:&lt;method &#39;reduce&#39; of &#39;numpy.ufunc&#39; objects&gt;</text>
<text text-anchor="middle" x="1537.8125" y="-30.4971" font-family="Arial" font-size="10.00" fill="#ffffff">3.80%</text>
<text text-anchor="middle" x="1537.8125" y="-18.998" font-family="Arial" font-size="10.00" fill="#ffffff">(3.80%)</text>
<text text-anchor="middle" x="1537.8125" y="-7.499" font-family="Arial" font-size="10.00" fill="#ffffff">1000000×</text>
</a>
</g>
</g>
<!-- 891&#45;&gt;890 -->
<g id="edge28" class="edge">
<title>891&#45;&gt;890</title>
<path fill="none" stroke="#0d1d78" stroke-width=".5" d="M1537.8125,-94.7707C1537.8125,-83.2436 1537.8125,-69.7552 1537.8125,-57.86"/>
<polygon fill="#0d1d78" stroke="#0d1d78" stroke-width=".5" points="1539.0376,-57.7235 1537.8125,-54.2235 1536.5876,-57.7236 1539.0376,-57.7235"/>
<text text-anchor="middle" x="1560.1978" y="-77.9941" font-family="Arial" font-size="10.00" fill="#0d1d78">3.80%</text>
<text text-anchor="middle" x="1560.1978" y="-66.4951" font-family="Arial" font-size="10.00" fill="#0d1d78">1000000×</text>
</g>
<!-- 811 -->
<g id="node16" class="node">
<title>811</title>
<g id="a_node16"><a xlink:title="/Users/thomasmarkovich/.virtualenvs/py36/lib/python3.6/site&#45;packages/numpy/core/fromnumeric.py">
<polygon fill="#0d397f" stroke="#0d397f" points="1561.8057,-338.9766 1445.8193,-338.9766 1445.8193,-284.9844 1561.8057,-284.9844 1561.8057,-338.9766"/>
<text text-anchor="middle" x="1503.8125" y="-326.9785" font-family="Arial" font-size="10.00" fill="#ffffff">fromnumeric:1886:any</text>
<text text-anchor="middle" x="1503.8125" y="-315.4795" font-family="Arial" font-size="10.00" fill="#ffffff">9.71%</text>
<text text-anchor="middle" x="1503.8125" y="-303.9805" font-family="Arial" font-size="10.00" fill="#ffffff">(1.88%)</text>
<text text-anchor="middle" x="1503.8125" y="-292.4814" font-family="Arial" font-size="10.00" fill="#ffffff">1000000×</text>
</a>
</g>
</g>
<!-- 811&#45;&gt;810 -->
<g id="edge16" class="edge">
<title>811&#45;&gt;810</title>
<path fill="none" stroke="#0d2479" stroke-width=".5" d="M1513.5555,-284.759C1517.7168,-273.1326 1522.5923,-259.5108 1526.8765,-247.5411"/>
<polygon fill="#0d2479" stroke="#0d2479" stroke-width=".5" points="1528.0419,-247.9199 1528.068,-244.2118 1525.7352,-247.0943 1528.0419,-247.9199"/>
<text text-anchor="middle" x="1548.1978" y="-267.9824" font-family="Arial" font-size="10.00" fill="#0d2479">5.26%</text>
<text text-anchor="middle" x="1548.1978" y="-256.4834" font-family="Arial" font-size="10.00" fill="#0d2479">1000000×</text>
</g>
<!-- 830 -->
<g id="node17" class="node">
<title>830</title>
<g id="a_node17"><a xlink:title="/Users/thomasmarkovich/.virtualenvs/py36/lib/python3.6/site&#45;packages/numpy/core/numeric.py">
<polygon fill="#0d1876" stroke="#0d1876" points="1419.5882,-243.9824 1296.0368,-243.9824 1296.0368,-189.9902 1419.5882,-189.9902 1419.5882,-243.9824"/>
<text text-anchor="middle" x="1357.8125" y="-231.9844" font-family="Arial" font-size="10.00" fill="#ffffff">numeric:534:asanyarray</text>
<text text-anchor="middle" x="1357.8125" y="-220.4854" font-family="Arial" font-size="10.00" fill="#ffffff">2.58%</text>
<text text-anchor="middle" x="1357.8125" y="-208.9863" font-family="Arial" font-size="10.00" fill="#ffffff">(0.50%)</text>
<text text-anchor="middle" x="1357.8125" y="-197.4873" font-family="Arial" font-size="10.00" fill="#ffffff">1000028×</text>
</a>
</g>
</g>
<!-- 811&#45;&gt;830 -->
<g id="edge17" class="edge">
<title>811&#45;&gt;830</title>
<path fill="none" stroke="#0d1876" stroke-width=".5" d="M1461.9748,-284.759C1443.4151,-272.6832 1421.5472,-258.455 1402.652,-246.1609"/>
<polygon fill="#0d1876" stroke="#0d1876" stroke-width=".5" points="1403.0055,-244.9295 1399.4038,-244.0475 1401.6694,-246.9831 1403.0055,-244.9295"/>
<text text-anchor="middle" x="1471.1978" y="-267.9824" font-family="Arial" font-size="10.00" fill="#0d1876">2.58%</text>
<text text-anchor="middle" x="1471.1978" y="-256.4834" font-family="Arial" font-size="10.00" fill="#0d1876">1000000×</text>
</g>
<!-- 828 -->
<g id="node26" class="node">
<title>828</title>
<g id="a_node26"><a xlink:title="~">
<polygon fill="#0d4683" stroke="#0d4683" points="1413.8174,-148.9883 1177.8076,-148.9883 1177.8076,-94.9961 1413.8174,-94.9961 1413.8174,-148.9883"/>
<text text-anchor="middle" x="1295.8125" y="-136.9902" font-family="Arial" font-size="10.00" fill="#ffffff">~:0:&lt;built&#45;in method numpy.core.multiarray.array&gt;</text>
<text text-anchor="middle" x="1295.8125" y="-125.4912" font-family="Arial" font-size="10.00" fill="#ffffff">12.25%</text>
<text text-anchor="middle" x="1295.8125" y="-113.9922" font-family="Arial" font-size="10.00" fill="#ffffff">(12.25%)</text>
<text text-anchor="middle" x="1295.8125" y="-102.4932" font-family="Arial" font-size="10.00" fill="#ffffff">9000130×</text>
</a>
</g>
</g>
<!-- 830&#45;&gt;828 -->
<g id="edge27" class="edge">
<title>830&#45;&gt;828</title>
<path fill="none" stroke="#0d1575" stroke-width=".5" d="M1340.0458,-189.7648C1332.3927,-178.039 1323.4149,-164.2837 1315.5546,-152.2404"/>
<polygon fill="#0d1575" stroke="#0d1575" stroke-width=".5" points="1316.5207,-151.4791 1313.5818,-149.2177 1314.469,-152.8182 1316.5207,-151.4791"/>
<text text-anchor="middle" x="1357.1978" y="-172.9883" font-family="Arial" font-size="10.00" fill="#0d1575">2.07%</text>
<text text-anchor="middle" x="1357.1978" y="-161.4893" font-family="Arial" font-size="10.00" fill="#0d1575">1000028×</text>
</g>
<!-- 817 -->
<g id="node18" class="node">
<title>817</title>
<g id="a_node18"><a xlink:title="~">
<polygon fill="#0d1074" stroke="#0d1074" points="537.9796,-338.9766 325.6454,-338.9766 325.6454,-284.9844 537.9796,-284.9844 537.9796,-338.9766"/>
<text text-anchor="middle" x="431.8125" y="-326.9785" font-family="Arial" font-size="10.00" fill="#ffffff">~:0:&lt;method &#39;fill&#39; of &#39;numpy.ndarray&#39; objects&gt;</text>
<text text-anchor="middle" x="431.8125" y="-315.4795" font-family="Arial" font-size="10.00" fill="#ffffff">0.69%</text>
<text text-anchor="middle" x="431.8125" y="-303.9805" font-family="Arial" font-size="10.00" fill="#ffffff">(0.69%)</text>
<text text-anchor="middle" x="431.8125" y="-292.4814" font-family="Arial" font-size="10.00" fill="#ffffff">1000000×</text>
</a>
</g>
</g>
<!-- 818&#45;&gt;811 -->
<g id="edge18" class="edge">
<title>818&#45;&gt;811</title>
<path fill="none" stroke="#0d397f" stroke-width=".5" d="M1002.7883,-404.4826C1106.5373,-399.468 1290.9862,-384.3754 1441.8125,-338.9785 1441.9811,-338.9278 1442.1499,-338.8767 1442.3188,-338.8253"/>
<polygon fill="#0d397f" stroke="#0d397f" stroke-width=".5" points="1442.9161,-339.9214 1445.885,-337.6995 1442.1786,-337.585 1442.9161,-339.9214"/>
<text text-anchor="middle" x="1424.1978" y="-362.9766" font-family="Arial" font-size="10.00" fill="#0d397f">9.71%</text>
<text text-anchor="middle" x="1424.1978" y="-351.4775" font-family="Arial" font-size="10.00" fill="#0d397f">1000000×</text>
</g>
<!-- 818&#45;&gt;817 -->
<g id="edge19" class="edge">
<title>818&#45;&gt;817</title>
<path fill="none" stroke="#0d1074" stroke-width=".5" d="M841.0788,-394.1201C763.9468,-381.4638 644.5553,-360.8931 541.8125,-338.9785 541.6562,-338.9452 541.4999,-338.9118 541.3434,-338.8783"/>
<polygon fill="#0d1074" stroke="#0d1074" stroke-width=".5" points="541.7207,-337.7066 538.0412,-338.1674 541.205,-340.1017 541.7207,-337.7066"/>
<text text-anchor="middle" x="721.1978" y="-362.9766" font-family="Arial" font-size="10.00" fill="#0d1074">0.69%</text>
<text text-anchor="middle" x="721.1978" y="-351.4775" font-family="Arial" font-size="10.00" fill="#0d1074">1000000×</text>
</g>
<!-- 829 -->
<g id="node20" class="node">
<title>829</title>
<g id="a_node20"><a xlink:title="/Users/thomasmarkovich/.virtualenvs/py36/lib/python3.6/site&#45;packages/numpy/core/numeric.py">
<polygon fill="#0d4c84" stroke="#0d4c84" points="1287.465,-243.9824 1180.16,-243.9824 1180.16,-189.9902 1287.465,-189.9902 1287.465,-243.9824"/>
<text text-anchor="middle" x="1233.8125" y="-231.9844" font-family="Arial" font-size="10.00" fill="#ffffff">numeric:463:asarray</text>
<text text-anchor="middle" x="1233.8125" y="-220.4854" font-family="Arial" font-size="10.00" fill="#ffffff">13.20%</text>
<text text-anchor="middle" x="1233.8125" y="-208.9863" font-family="Arial" font-size="10.00" fill="#ffffff">(3.02%)</text>
<text text-anchor="middle" x="1233.8125" y="-197.4873" font-family="Arial" font-size="10.00" fill="#ffffff">8000002×</text>
</a>
</g>
</g>
<!-- 818&#45;&gt;829 -->
<g id="edge20" class="edge">
<title>818&#45;&gt;829</title>
<path fill="none" stroke="#0d4282" stroke-width=".5" d="M840.9542,-404.3912C676.0357,-398.2871 313.2124,-380.2682 276.042,-338.9785 259.9857,-321.1428 259.6845,-302.5423 276.042,-284.9824 306.8935,-251.863 974.9618,-225.9926 1176.6591,-218.9146"/>
<polygon fill="#0d4282" stroke="#0d4282" stroke-width=".5" points="1176.7216,-220.1383 1180.1766,-218.7914 1176.6358,-217.6898 1176.7216,-220.1383"/>
<text text-anchor="middle" x="299.1978" y="-315.4795" font-family="Arial" font-size="10.00" fill="#0d4282">11.46%</text>
<text text-anchor="middle" x="299.1978" y="-303.9805" font-family="Arial" font-size="10.00" fill="#0d4282">6000000×</text>
</g>
<!-- 840 -->
<g id="node21" class="node">
<title>840</title>
<g id="a_node21"><a xlink:title="~">
<polygon fill="#0d1074" stroke="#0d1074" points="787.2661,-338.9766 546.3589,-338.9766 546.3589,-284.9844 787.2661,-284.9844 787.2661,-338.9766"/>
<text text-anchor="middle" x="666.8125" y="-326.9785" font-family="Arial" font-size="10.00" fill="#ffffff">~:0:&lt;built&#45;in method numpy.core.multiarray.empty&gt;</text>
<text text-anchor="middle" x="666.8125" y="-315.4795" font-family="Arial" font-size="10.00" fill="#ffffff">0.77%</text>
<text text-anchor="middle" x="666.8125" y="-303.9805" font-family="Arial" font-size="10.00" fill="#ffffff">(0.77%)</text>
<text text-anchor="middle" x="666.8125" y="-292.4814" font-family="Arial" font-size="10.00" fill="#ffffff">1000021×</text>
</a>
</g>
</g>
<!-- 818&#45;&gt;840 -->
<g id="edge21" class="edge">
<title>818&#45;&gt;840</title>
<path fill="none" stroke="#0d1074" stroke-width=".5" d="M849.081,-379.8802C815.9871,-367.5519 776.8153,-352.9594 743.283,-340.4677"/>
<polygon fill="#0d1074" stroke="#0d1074" stroke-width=".5" points="743.3481,-339.1848 739.6406,-339.1108 742.4928,-341.4806 743.3481,-339.1848"/>
<text text-anchor="middle" x="847.1978" y="-362.9766" font-family="Arial" font-size="10.00" fill="#0d1074">0.77%</text>
<text text-anchor="middle" x="847.1978" y="-351.4775" font-family="Arial" font-size="10.00" fill="#0d1074">1000000×</text>
</g>
<!-- 841 -->
<g id="node22" class="node">
<title>841</title>
<g id="a_node22"><a xlink:title="~">
<polygon fill="#0d1575" stroke="#0d1575" points="1047.3271,-338.9766 796.2979,-338.9766 796.2979,-284.9844 1047.3271,-284.9844 1047.3271,-338.9766"/>
<text text-anchor="middle" x="921.8125" y="-326.9785" font-family="Arial" font-size="10.00" fill="#ffffff">~:0:&lt;built&#45;in method numpy.core.multiarray.putmask&gt;</text>
<text text-anchor="middle" x="921.8125" y="-315.4795" font-family="Arial" font-size="10.00" fill="#ffffff">1.93%</text>
<text text-anchor="middle" x="921.8125" y="-303.9805" font-family="Arial" font-size="10.00" fill="#ffffff">(1.93%)</text>
<text text-anchor="middle" x="921.8125" y="-292.4814" font-family="Arial" font-size="10.00" fill="#ffffff">1000000×</text>
</a>
</g>
</g>
<!-- 818&#45;&gt;841 -->
<g id="edge22" class="edge">
<title>818&#45;&gt;841</title>
<path fill="none" stroke="#0d1575" stroke-width=".5" d="M921.8125,-379.7531C921.8125,-368.2261 921.8125,-354.7376 921.8125,-342.8425"/>
<polygon fill="#0d1575" stroke="#0d1575" stroke-width=".5" points="923.0376,-342.7059 921.8125,-339.206 920.5876,-342.706 923.0376,-342.7059"/>
<text text-anchor="middle" x="944.1978" y="-362.9766" font-family="Arial" font-size="10.00" fill="#0d1575">1.93%</text>
<text text-anchor="middle" x="944.1978" y="-351.4775" font-family="Arial" font-size="10.00" fill="#0d1575">1000000×</text>
</g>
<!-- 945 -->
<g id="node23" class="node">
<title>945</title>
<g id="a_node23"><a xlink:title="/Users/thomasmarkovich/.virtualenvs/py36/lib/python3.6/site&#45;packages/numpy/core/numerictypes.py">
<polygon fill="#0c9884" stroke="#0c9884" points="254.0138,-338.9766 71.6112,-338.9766 71.6112,-284.9844 254.0138,-284.9844 254.0138,-338.9766"/>
<text text-anchor="middle" x="162.8125" y="-326.9785" font-family="Arial" font-size="10.00" fill="#ffffff">numerictypes:964:find_common_type</text>
<text text-anchor="middle" x="162.8125" y="-315.4795" font-family="Arial" font-size="10.00" fill="#ffffff">28.60%</text>
<text text-anchor="middle" x="162.8125" y="-303.9805" font-family="Arial" font-size="10.00" fill="#ffffff">(2.49%)</text>
<text text-anchor="middle" x="162.8125" y="-292.4814" font-family="Arial" font-size="10.00" fill="#ffffff">1000000×</text>
</a>
</g>
</g>
<!-- 818&#45;&gt;945 -->
<g id="edge23" class="edge">
<title>818&#45;&gt;945</title>
<path fill="none" stroke="#0c9884" stroke-width="1.14" d="M841.153,-406.1449C668.7087,-403.8955 275.3122,-396.0525 220.042,-370.9766 206.6198,-364.887 194.7122,-354.1073 185.2819,-343.4136"/>
<polygon fill="#0c9884" stroke="#0c9884" stroke-width="1.14" points="186.5118,-341.9972 181.6598,-339.1708 183.6902,-344.4061 186.5118,-341.9972"/>
<text text-anchor="middle" x="243.1978" y="-362.9766" font-family="Arial" font-size="10.00" fill="#0c9884">28.60%</text>
<text text-anchor="middle" x="243.1978" y="-351.4775" font-family="Arial" font-size="10.00" fill="#0c9884">1000000×</text>
</g>
<!-- 950 -->
<g id="node24" class="node">
<title>950</title>
<g id="a_node24"><a xlink:title="/Users/thomasmarkovich/.virtualenvs/py36/lib/python3.6/site&#45;packages/scipy/stats/_distn_infrastructure.py">
<polygon fill="#0d4983" stroke="#0d4983" points="1437.292,-338.9766 1262.333,-338.9766 1262.333,-284.9844 1437.292,-284.9844 1437.292,-338.9766"/>
<text text-anchor="middle" x="1349.8125" y="-326.9785" font-family="Arial" font-size="10.00" fill="#ffffff">_distn_infrastructure:863:_argcheck</text>
<text text-anchor="middle" x="1349.8125" y="-315.4795" font-family="Arial" font-size="10.00" fill="#ffffff">12.76%</text>
<text text-anchor="middle" x="1349.8125" y="-303.9805" font-family="Arial" font-size="10.00" fill="#ffffff">(11.02%)</text>
<text text-anchor="middle" x="1349.8125" y="-292.4814" font-family="Arial" font-size="10.00" fill="#ffffff">1000001×</text>
</a>
</g>
</g>
<!-- 818&#45;&gt;950 -->
<g id="edge24" class="edge">
<title>818&#45;&gt;950</title>
<path fill="none" stroke="#0d4983" stroke-width=".51" d="M1002.8023,-393.0449C1071.1971,-380.6954 1171.5036,-361.2053 1257.8125,-338.9785 1258.0845,-338.9085 1258.357,-338.8382 1258.6298,-338.7676"/>
<polygon fill="#0d4983" stroke="#0d4983" stroke-width=".51" points="1259.0318,-339.965 1262.1973,-337.8373 1258.3959,-337.5265 1259.0318,-339.965"/>
<text text-anchor="middle" x="1235.1978" y="-362.9766" font-family="Arial" font-size="10.00" fill="#0d4983">12.76%</text>
<text text-anchor="middle" x="1235.1978" y="-351.4775" font-family="Arial" font-size="10.00" fill="#0d4983">1000000×</text>
</g>
<!-- 1396 -->
<g id="node25" class="node">
<title>1396</title>
<g id="a_node25"><a xlink:title="/Users/thomasmarkovich/.virtualenvs/py36/lib/python3.6/site&#45;packages/scipy/stats/_distn_infrastructure.py">
<polygon fill="#0d1b77" stroke="#0d1b77" points="1253.5236,-338.9766 1056.1014,-338.9766 1056.1014,-284.9844 1253.5236,-284.9844 1253.5236,-338.9766"/>
<text text-anchor="middle" x="1154.8125" y="-326.9785" font-family="Arial" font-size="10.00" fill="#ffffff">_distn_infrastructure:875:_support_mask</text>
<text text-anchor="middle" x="1154.8125" y="-315.4795" font-family="Arial" font-size="10.00" fill="#ffffff">3.26%</text>
<text text-anchor="middle" x="1154.8125" y="-303.9805" font-family="Arial" font-size="10.00" fill="#ffffff">(3.26%)</text>
<text text-anchor="middle" x="1154.8125" y="-292.4814" font-family="Arial" font-size="10.00" fill="#ffffff">1000000×</text>
</a>
</g>
</g>
<!-- 818&#45;&gt;1396 -->
<g id="edge25" class="edge">
<title>818&#45;&gt;1396</title>
<path fill="none" stroke="#0d1b77" stroke-width=".5" d="M988.2691,-379.8802C1018.5078,-367.5519 1054.3002,-352.9594 1084.9394,-340.4677"/>
<polygon fill="#0d1b77" stroke="#0d1b77" stroke-width=".5" points="1085.4891,-341.5666 1088.2676,-339.1108 1084.5641,-339.2979 1085.4891,-341.5666"/>
<text text-anchor="middle" x="1089.1978" y="-362.9766" font-family="Arial" font-size="10.00" fill="#0d1b77">3.26%</text>
<text text-anchor="middle" x="1089.1978" y="-351.4775" font-family="Arial" font-size="10.00" fill="#0d1b77">1000000×</text>
</g>
<!-- 829&#45;&gt;828 -->
<g id="edge26" class="edge">
<title>829&#45;&gt;828</title>
<path fill="none" stroke="#0d3c80" stroke-width=".5" d="M1250.0098,-189.7132C1256.1329,-179.6451 1263.2617,-168.2046 1270.042,-157.9902 1271.2694,-156.1412 1272.5478,-154.2513 1273.85,-152.3533"/>
<polygon fill="#0d3c80" stroke="#0d3c80" stroke-width=".5" points="1274.9304,-152.9446 1275.9121,-149.3687 1272.9147,-151.5519 1274.9304,-152.9446"/>
<text text-anchor="middle" x="1293.1978" y="-172.9883" font-family="Arial" font-size="10.00" fill="#0d3c80">10.18%</text>
<text text-anchor="middle" x="1293.1978" y="-161.4893" font-family="Arial" font-size="10.00" fill="#0d3c80">8000002×</text>
</g>
<!-- 945&#45;&gt;476 -->
<g id="edge29" class="edge">
<title>945&#45;&gt;476</title>
<path fill="none" stroke="#0c9293" stroke-width=".99" d="M186.597,-284.759C196.5818,-273.3313 208.2509,-259.9759 218.5781,-248.1563"/>
<polygon fill="#0c9293" stroke="#0c9293" stroke-width=".99" points="220.0525,-249.1285 222.0246,-244.2118 217.4169,-246.8256 220.0525,-249.1285"/>
<text text-anchor="middle" x="237.1978" y="-267.9824" font-family="Arial" font-size="10.00" fill="#0c9293">24.85%</text>
<text text-anchor="middle" x="237.1978" y="-256.4834" font-family="Arial" font-size="10.00" fill="#0c9293">2000000×</text>
</g>
<!-- 946 -->
<g id="node28" class="node">
<title>946</title>
<g id="a_node28"><a xlink:title="/Users/thomasmarkovich/.virtualenvs/py36/lib/python3.6/site&#45;packages/numpy/core/numerictypes.py">
<polygon fill="#0d1174" stroke="#0d1174" points="151.438,-243.9824 .187,-243.9824 .187,-189.9902 151.438,-189.9902 151.438,-243.9824"/>
<text text-anchor="middle" x="75.8125" y="-231.9844" font-family="Arial" font-size="10.00" fill="#ffffff">numerictypes:1015:&lt;listcomp&gt;</text>
<text text-anchor="middle" x="75.8125" y="-220.4854" font-family="Arial" font-size="10.00" fill="#ffffff">1.03%</text>
<text text-anchor="middle" x="75.8125" y="-208.9863" font-family="Arial" font-size="10.00" fill="#ffffff">(1.03%)</text>
<text text-anchor="middle" x="75.8125" y="-197.4873" font-family="Arial" font-size="10.00" fill="#ffffff">1000000×</text>
</a>
</g>
</g>
<!-- 945&#45;&gt;946 -->
<g id="edge30" class="edge">
<title>945&#45;&gt;946</title>
<path fill="none" stroke="#0d1174" stroke-width=".5" d="M137.8818,-284.759C127.0518,-272.9338 114.3313,-259.0445 103.2351,-246.9287"/>
<polygon fill="#0d1174" stroke="#0d1174" stroke-width=".5" points="104.0142,-245.9656 100.7468,-244.2118 102.2074,-247.6203 104.0142,-245.9656"/>
<text text-anchor="middle" x="152.1978" y="-267.9824" font-family="Arial" font-size="10.00" fill="#0d1174">1.03%</text>
<text text-anchor="middle" x="152.1978" y="-256.4834" font-family="Arial" font-size="10.00" fill="#0d1174">1000000×</text>
</g>
<!-- 950&#45;&gt;829 -->
<g id="edge31" class="edge">
<title>950&#45;&gt;829</title>
<path fill="none" stroke="#0d1475" stroke-width=".5" d="M1316.5716,-284.759C1302.0102,-272.8344 1284.8857,-258.8109 1270.0034,-246.6236"/>
<polygon fill="#0d1475" stroke="#0d1475" stroke-width=".5" points="1270.5423,-245.4816 1267.0583,-244.2118 1268.9901,-247.3771 1270.5423,-245.4816"/>
<text text-anchor="middle" x="1328.1978" y="-267.9824" font-family="Arial" font-size="10.00" fill="#0d1475">1.74%</text>
<text text-anchor="middle" x="1328.1978" y="-256.4834" font-family="Arial" font-size="10.00" fill="#0d1475">2000002×</text>
</g>
</g>
</svg>
